<?xml version="1.0" encoding="UTF-8" standalone="no"?>
<!DOCTYPE svg PUBLIC "-//W3C//DTD SVG 1.1//EN"
 "http://www.w3.org/Graphics/SVG/1.1/DTD/svg11.dtd">
<!-- Generated by graphviz version 2.36.0 (20140111.2315)
 -->
<!-- Title: models_diagram Pages: 1 -->
<svg width="293pt" height="230pt"
 viewBox="0.00 0.00 293.00 230.00" xmlns="http://www.w3.org/2000/svg" xmlns:xlink="http://www.w3.org/1999/xlink">
<g id="graph0" class="graph" transform="scale(1 1) rotate(0) translate(4 226)">
<title>models_diagram</title>
<polygon fill="none" stroke="none" points="-4,4 -4,-226 289,-226 289,4 -4,4"/>
<!-- _diagram_info -->
<g id="node1" class="node"><title>_diagram_info</title>
<text text-anchor="start" x="7" y="-207.6" font-family="Times,serif" font-size="13.00">Models diagram</text>
<text text-anchor="start" x="7" y="-193.6" font-family="Times,serif" font-size="13.00">Date: Apr 14 2016 &#45; 20:17</text>
<text text-anchor="start" x="7" y="-179.6" font-family="Times,serif" font-size="13.00">Migration version: 20160414031238</text>
<text text-anchor="start" x="7" y="-165.6" font-family="Times,serif" font-size="13.00">Generated by RailRoady 1.4.2</text>
<text text-anchor="start" x="7" y="-151.6" font-family="Times,serif" font-size="13.00">http://railroady.prestonlee.com</text>
</g>
<!-- Task -->
<g id="node2" class="node"><title>Task</title>
<ellipse fill="none" stroke="black" cx="258" cy="-18" rx="27.4223" ry="18"/>
<text text-anchor="middle" x="258" y="-14.3" font-family="Times,serif" font-size="14.00">Task</text>
</g>
<!-- User -->
<g id="node3" class="node"><title>User</title>
<ellipse fill="none" stroke="black" cx="258" cy="-183" rx="26.949" ry="18"/>
<text text-anchor="middle" x="258" y="-179.3" font-family="Times,serif" font-size="14.00">User</text>
</g>
<!-- List -->
<g id="node4" class="node"><title>List</title>
<ellipse fill="none" stroke="black" cx="258" cy="-90" rx="27" ry="18"/>
<text text-anchor="middle" x="258" y="-86.3" font-family="Times,serif" font-size="14.00">List</text>
</g>
<!-- User&#45;&gt;List -->
<g id="edge1" class="edge"><title>User&#45;&gt;List</title>
<path fill="none" stroke="#d78392" d="M258,-156.729C258,-144.725 258,-130.362 258,-118.129"/>
<ellipse fill="none" stroke="#d78392" cx="258" cy="-160.884" rx="4" ry="4"/>
<polygon fill="#d78392" stroke="#d78392" points="258,-118.04 262.5,-108.04 258,-113.04 258,-108.04 258,-108.04 258,-108.04 258,-113.04 253.5,-108.04 258,-118.04 258,-118.04"/>
</g>
<!-- List&#45;&gt;Task -->
<g id="edge2" class="edge"><title>List&#45;&gt;Task</title>
<path fill="none" stroke="#e2c783" d="M258,-63.6398C258,-58.0629 258,-52.1319 258,-46.4761"/>
<ellipse fill="none" stroke="#e2c783" cx="258" cy="-67.6966" rx="4" ry="4"/>
<polygon fill="#e2c783" stroke="#e2c783" points="258,-46.1043 262.5,-36.1043 258,-41.1043 258,-36.1043 258,-36.1043 258,-36.1043 258,-41.1043 253.5,-36.1044 258,-46.1043 258,-46.1043"/>
</g>
</g>
</svg>
