<?xml version="1.0" encoding="UTF-8" standalone="no"?>
<!DOCTYPE svg PUBLIC "-//W3C//DTD SVG 1.1//EN"
 "http://www.w3.org/Graphics/SVG/1.1/DTD/svg11.dtd">
<!-- Generated by graphviz version 2.36.0 (20140111.2315)
 -->
<!-- Title: models_diagram Pages: 1 -->
<svg width="483pt" height="464pt"
 viewBox="0.00 0.00 483.00 464.00" xmlns="http://www.w3.org/2000/svg" xmlns:xlink="http://www.w3.org/1999/xlink">
<g id="graph0" class="graph" transform="scale(1 1) rotate(0) translate(4 460)">
<title>models_diagram</title>
<polygon fill="none" stroke="none" points="-4,4 -4,-460 479,-460 479,4 -4,4"/>
<!-- _diagram_info -->
<g id="node1" class="node"><title>_diagram_info</title>
<text text-anchor="start" x="7" y="-411.6" font-family="Times,serif" font-size="13.00">Models diagram</text>
<text text-anchor="start" x="7" y="-397.6" font-family="Times,serif" font-size="13.00">Date: Apr 14 2016 &#45; 20:17</text>
<text text-anchor="start" x="7" y="-383.6" font-family="Times,serif" font-size="13.00">Migration version: 20160414031238</text>
<text text-anchor="start" x="7" y="-369.6" font-family="Times,serif" font-size="13.00">Generated by RailRoady 1.4.2</text>
<text text-anchor="start" x="7" y="-355.6" font-family="Times,serif" font-size="13.00">http://railroady.prestonlee.com</text>
</g>
<!-- Task -->
<g id="node2" class="node"><title>Task</title>
<path fill="none" stroke="black" d="M243,-1C243,-1 463,-1 463,-1 469,-1 475,-7 475,-13 475,-13 475,-125 475,-125 475,-131 469,-137 463,-137 463,-137 243,-137 243,-137 237,-137 231,-131 231,-125 231,-125 231,-13 231,-13 231,-7 237,-1 243,-1"/>
<text text-anchor="middle" x="353" y="-121.8" font-family="Times,serif" font-size="14.00">Task</text>
<polyline fill="none" stroke="black" points="231,-114 475,-114 "/>
<text text-anchor="start" x="239" y="-98.8" font-family="Times,serif" font-size="14.00">id :integer</text>
<text text-anchor="start" x="239" y="-83.8" font-family="Times,serif" font-size="14.00">title :character varying</text>
<text text-anchor="start" x="239" y="-68.8" font-family="Times,serif" font-size="14.00">note :text</text>
<text text-anchor="start" x="239" y="-53.8" font-family="Times,serif" font-size="14.00">completed :boolean</text>
<text text-anchor="start" x="239" y="-38.8" font-family="Times,serif" font-size="14.00">created_at :timestamp without time zone</text>
<text text-anchor="start" x="239" y="-23.8" font-family="Times,serif" font-size="14.00">updated_at :timestamp without time zone</text>
<text text-anchor="start" x="239" y="-8.8" font-family="Times,serif" font-size="14.00">list_id :integer</text>
</g>
<!-- User -->
<g id="node3" class="node"><title>User</title>
<path fill="none" stroke="black" d="M243,-319C243,-319 463,-319 463,-319 469,-319 475,-325 475,-331 475,-331 475,-443 475,-443 475,-449 469,-455 463,-455 463,-455 243,-455 243,-455 237,-455 231,-449 231,-443 231,-443 231,-331 231,-331 231,-325 237,-319 243,-319"/>
<text text-anchor="middle" x="353" y="-439.8" font-family="Times,serif" font-size="14.00">User</text>
<polyline fill="none" stroke="black" points="231,-432 475,-432 "/>
<text text-anchor="start" x="239" y="-416.8" font-family="Times,serif" font-size="14.00">id :integer</text>
<text text-anchor="start" x="239" y="-401.8" font-family="Times,serif" font-size="14.00">name :character varying</text>
<text text-anchor="start" x="239" y="-386.8" font-family="Times,serif" font-size="14.00">last_name :character varying</text>
<text text-anchor="start" x="239" y="-371.8" font-family="Times,serif" font-size="14.00">username :character varying</text>
<text text-anchor="start" x="239" y="-356.8" font-family="Times,serif" font-size="14.00">email :character varying</text>
<text text-anchor="start" x="239" y="-341.8" font-family="Times,serif" font-size="14.00">created_at :timestamp without time zone</text>
<text text-anchor="start" x="239" y="-326.8" font-family="Times,serif" font-size="14.00">updated_at :timestamp without time zone</text>
</g>
<!-- List -->
<g id="node4" class="node"><title>List</title>
<path fill="none" stroke="black" d="M243,-175C243,-175 463,-175 463,-175 469,-175 475,-181 475,-187 475,-187 475,-269 475,-269 475,-275 469,-281 463,-281 463,-281 243,-281 243,-281 237,-281 231,-275 231,-269 231,-269 231,-187 231,-187 231,-181 237,-175 243,-175"/>
<text text-anchor="middle" x="353" y="-265.8" font-family="Times,serif" font-size="14.00">List</text>
<polyline fill="none" stroke="black" points="231,-258 475,-258 "/>
<text text-anchor="start" x="239" y="-242.8" font-family="Times,serif" font-size="14.00">id :integer</text>
<text text-anchor="start" x="239" y="-227.8" font-family="Times,serif" font-size="14.00">title :character varying</text>
<text text-anchor="start" x="239" y="-212.8" font-family="Times,serif" font-size="14.00">created_at :timestamp without time zone</text>
<text text-anchor="start" x="239" y="-197.8" font-family="Times,serif" font-size="14.00">updated_at :timestamp without time zone</text>
<text text-anchor="start" x="239" y="-182.8" font-family="Times,serif" font-size="14.00">user_id :integer</text>
</g>
<!-- User&#45;&gt;List -->
<g id="edge1" class="edge"><title>User&#45;&gt;List</title>
<path fill="none" stroke="#fa0fed" d="M353,-310.904C353,-304.287 353,-297.637 353,-291.143"/>
<ellipse fill="none" stroke="#fa0fed" cx="353" cy="-314.962" rx="4" ry="4"/>
<polygon fill="#fa0fed" stroke="#fa0fed" points="353,-291.095 357.5,-281.095 353,-286.095 353,-281.095 353,-281.095 353,-281.095 353,-286.095 348.5,-281.095 353,-291.095 353,-291.095"/>
</g>
<!-- List&#45;&gt;Task -->
<g id="edge2" class="edge"><title>List&#45;&gt;Task</title>
<path fill="none" stroke="#e8aeee" d="M353,-166.699C353,-160.349 353,-153.831 353,-147.323"/>
<ellipse fill="none" stroke="#e8aeee" cx="353" cy="-170.721" rx="4" ry="4"/>
<polygon fill="#e8aeee" stroke="#e8aeee" points="353,-147.132 357.5,-137.132 353,-142.132 353,-137.132 353,-137.132 353,-137.132 353,-142.132 348.5,-137.132 353,-147.132 353,-147.132"/>
</g>
</g>
</svg>
